<mxfile host="65bd71144e">
    <diagram id="qeaMFSYS2zgto-DaGSyR" name="Page-1">
        <mxGraphModel dx="2073" dy="1859" grid="1" gridSize="10" guides="1" tooltips="1" connect="1" arrows="1" fold="1" page="1" pageScale="1" pageWidth="850" pageHeight="1100" math="0" shadow="0">
            <root>
                <mxCell id="0"/>
                <mxCell id="1" parent="0"/>
                <mxCell id="4" value="" style="edgeStyle=none;html=1;noEdgeStyle=1;orthogonal=1;" parent="1" source="2" target="3" edge="1">
                    <mxGeometry relative="1" as="geometry">
                        <Array as="points">
                            <mxPoint x="65.9375" y="234"/>
                            <mxPoint x="30" y="270"/>
                            <mxPoint x="30" y="430"/>
                            <mxPoint x="173.33333333333334" y="468"/>
                        </Array>
                    </mxGeometry>
                </mxCell>
                <mxCell id="24" style="edgeStyle=none;html=1;noEdgeStyle=1;orthogonal=1;" parent="1" source="2" target="17" edge="1">
                    <mxGeometry relative="1" as="geometry">
                        <Array as="points">
                            <mxPoint x="102.60416666666666" y="232"/>
                            <mxPoint x="122.5" y="308"/>
                        </Array>
                    </mxGeometry>
                </mxCell>
                <mxCell id="38" style="edgeStyle=none;html=1;noEdgeStyle=1;orthogonal=1;" parent="1" source="2" target="7" edge="1">
                    <mxGeometry relative="1" as="geometry">
                        <Array as="points">
                            <mxPoint x="29.270833333333332" y="232"/>
                            <mxPoint y="270"/>
                            <mxPoint y="430"/>
                            <mxPoint y="430"/>
                            <mxPoint y="590"/>
                            <mxPoint y="590"/>
                            <mxPoint y="750"/>
                            <mxPoint x="44.166666666666664" y="788"/>
                        </Array>
                    </mxGeometry>
                </mxCell>
                <mxCell id="2" value="autologging" style="rounded=0;whiteSpace=wrap;html=1;" parent="1" vertex="1">
                    <mxGeometry x="5.9375" y="160" width="120" height="60" as="geometry"/>
                </mxCell>
                <mxCell id="6" value="" style="edgeStyle=none;html=1;noEdgeStyle=1;orthogonal=1;" parent="1" source="3" target="5" edge="1">
                    <mxGeometry relative="1" as="geometry">
                        <Array as="points">
                            <mxPoint x="246.66666666666666" y="552"/>
                            <mxPoint x="227.5" y="628"/>
                        </Array>
                    </mxGeometry>
                </mxCell>
                <mxCell id="25" style="edgeStyle=none;html=1;noEdgeStyle=1;orthogonal=1;" parent="1" source="3" target="7" edge="1">
                    <mxGeometry relative="1" as="geometry">
                        <Array as="points">
                            <mxPoint x="173.33333333333334" y="552"/>
                            <mxPoint x="135" y="590"/>
                            <mxPoint x="135" y="750"/>
                            <mxPoint x="117.49999999999999" y="786"/>
                        </Array>
                    </mxGeometry>
                </mxCell>
                <mxCell id="26" style="edgeStyle=none;html=1;noEdgeStyle=1;orthogonal=1;" parent="1" source="3" target="11" edge="1">
                    <mxGeometry relative="1" as="geometry">
                        <Array as="points">
                            <mxPoint x="210" y="554"/>
                            <mxPoint x="165" y="590"/>
                            <mxPoint x="165" y="750"/>
                            <mxPoint x="301" y="788"/>
                        </Array>
                    </mxGeometry>
                </mxCell>
                <mxCell id="3" value="dom" style="rounded=0;whiteSpace=wrap;html=1;" parent="1" vertex="1">
                    <mxGeometry x="150" y="480" width="120" height="60" as="geometry"/>
                </mxCell>
                <mxCell id="12" value="" style="edgeStyle=none;html=1;noEdgeStyle=1;orthogonal=1;" parent="1" source="5" target="11" edge="1">
                    <mxGeometry relative="1" as="geometry">
                        <Array as="points">
                            <mxPoint x="282.5" y="712"/>
                            <mxPoint x="323" y="786"/>
                        </Array>
                    </mxGeometry>
                </mxCell>
                <mxCell id="23" style="edgeStyle=none;html=1;noEdgeStyle=1;orthogonal=1;" parent="1" source="5" target="7" edge="1">
                    <mxGeometry relative="1" as="geometry">
                        <Array as="points">
                            <mxPoint x="227.5" y="712"/>
                            <mxPoint x="135.83333333333331" y="788"/>
                        </Array>
                    </mxGeometry>
                </mxCell>
                <mxCell id="5" value="core" style="rounded=0;whiteSpace=wrap;html=1;" parent="1" vertex="1">
                    <mxGeometry x="195" y="640" width="120" height="60" as="geometry"/>
                </mxCell>
                <mxCell id="7" value="global" style="rounded=0;whiteSpace=wrap;html=1;" parent="1" vertex="1">
                    <mxGeometry x="30" y="800" width="120" height="60" as="geometry"/>
                </mxCell>
                <mxCell id="11" value="hook" style="rounded=0;whiteSpace=wrap;html=1;" parent="1" vertex="1">
                    <mxGeometry x="285" y="800" width="120" height="60" as="geometry"/>
                </mxCell>
                <mxCell id="15" value="" style="edgeStyle=none;html=1;noEdgeStyle=1;orthogonal=1;" parent="1" source="13" target="14" edge="1">
                    <mxGeometry relative="1" as="geometry">
                        <mxPoint x="270" y="110" as="sourcePoint"/>
                        <Array as="points">
                            <mxPoint x="199.94791666666666" y="72"/>
                            <mxPoint x="278.9583333333333" y="148"/>
                        </Array>
                    </mxGeometry>
                </mxCell>
                <mxCell id="31" style="edgeStyle=none;html=1;noEdgeStyle=1;orthogonal=1;" parent="1" source="13" target="2" edge="1">
                    <mxGeometry relative="1" as="geometry">
                        <Array as="points">
                            <mxPoint x="144.94791666666666" y="72"/>
                            <mxPoint x="65.9375" y="148"/>
                        </Array>
                    </mxGeometry>
                </mxCell>
                <mxCell id="13" value="autologging-react" style="rounded=0;whiteSpace=wrap;html=1;" parent="1" vertex="1">
                    <mxGeometry x="112.44791666666666" width="120" height="60" as="geometry"/>
                </mxCell>
                <mxCell id="27" style="edgeStyle=none;html=1;noEdgeStyle=1;orthogonal=1;" parent="1" source="14" target="5" edge="1">
                    <mxGeometry relative="1" as="geometry">
                        <Array as="points">
                            <mxPoint x="300.9583333333333" y="234"/>
                            <mxPoint x="390" y="270"/>
                            <mxPoint x="390" y="430"/>
                            <mxPoint x="330" y="430"/>
                            <mxPoint x="330" y="590"/>
                            <mxPoint x="282.5" y="628"/>
                        </Array>
                    </mxGeometry>
                </mxCell>
                <mxCell id="28" style="edgeStyle=none;html=1;noEdgeStyle=1;orthogonal=1;" parent="1" source="14" target="11" edge="1">
                    <mxGeometry relative="1" as="geometry">
                        <Array as="points">
                            <mxPoint x="322.9583333333333" y="232"/>
                            <mxPoint x="420" y="270"/>
                            <mxPoint x="420" y="430"/>
                            <mxPoint x="420" y="430"/>
                            <mxPoint x="420" y="590"/>
                            <mxPoint x="375" y="590"/>
                            <mxPoint x="375" y="750"/>
                            <mxPoint x="367" y="786"/>
                        </Array>
                    </mxGeometry>
                </mxCell>
                <mxCell id="29" style="edgeStyle=none;html=1;noEdgeStyle=1;orthogonal=1;" parent="1" source="14" target="7" edge="1">
                    <mxGeometry relative="1" as="geometry">
                        <Array as="points">
                            <mxPoint x="234.95833333333331" y="232"/>
                            <mxPoint x="60" y="270"/>
                            <mxPoint x="60" y="430"/>
                            <mxPoint x="60" y="430"/>
                            <mxPoint x="60" y="590"/>
                            <mxPoint x="75" y="590"/>
                            <mxPoint x="75" y="750"/>
                            <mxPoint x="80.83333333333333" y="784"/>
                        </Array>
                    </mxGeometry>
                </mxCell>
                <mxCell id="30" style="edgeStyle=none;html=1;noEdgeStyle=1;orthogonal=1;" parent="1" source="14" target="17" edge="1">
                    <mxGeometry relative="1" as="geometry">
                        <Array as="points">
                            <mxPoint x="256.9583333333333" y="234"/>
                            <mxPoint x="177.5" y="308"/>
                        </Array>
                    </mxGeometry>
                </mxCell>
                <mxCell id="32" style="edgeStyle=none;html=1;noEdgeStyle=1;orthogonal=1;" parent="1" source="14" target="19" edge="1">
                    <mxGeometry relative="1" as="geometry">
                        <Array as="points">
                            <mxPoint x="278.9583333333333" y="236"/>
                            <mxPoint x="300" y="308"/>
                        </Array>
                    </mxGeometry>
                </mxCell>
                <mxCell id="14" value="react" style="rounded=0;whiteSpace=wrap;html=1;" parent="1" vertex="1">
                    <mxGeometry x="218.95833333333331" y="165" width="120" height="50" as="geometry"/>
                </mxCell>
                <mxCell id="20" style="edgeStyle=none;html=1;noEdgeStyle=1;orthogonal=1;" parent="1" source="17" target="7" edge="1">
                    <mxGeometry relative="1" as="geometry">
                        <Array as="points">
                            <mxPoint x="113.33333333333333" y="392"/>
                            <mxPoint x="90" y="430"/>
                            <mxPoint x="90" y="590"/>
                            <mxPoint x="45" y="590"/>
                            <mxPoint x="45" y="750"/>
                            <mxPoint x="62.5" y="786"/>
                        </Array>
                    </mxGeometry>
                </mxCell>
                <mxCell id="21" style="edgeStyle=none;html=1;noEdgeStyle=1;orthogonal=1;" parent="1" source="17" target="11" edge="1">
                    <mxGeometry relative="1" as="geometry">
                        <Array as="points">
                            <mxPoint x="186.66666666666666" y="392"/>
                            <mxPoint x="300" y="430"/>
                            <mxPoint x="300" y="590"/>
                            <mxPoint x="345" y="590"/>
                            <mxPoint x="345" y="750"/>
                            <mxPoint x="345" y="784"/>
                        </Array>
                    </mxGeometry>
                </mxCell>
                <mxCell id="22" style="edgeStyle=none;html=1;noEdgeStyle=1;orthogonal=1;" parent="1" source="17" target="3" edge="1">
                    <mxGeometry relative="1" as="geometry">
                        <Array as="points">
                            <mxPoint x="150" y="394"/>
                            <mxPoint x="210" y="466"/>
                        </Array>
                    </mxGeometry>
                </mxCell>
                <mxCell id="17" value="flowlet" style="rounded=0;whiteSpace=wrap;html=1;" parent="1" vertex="1">
                    <mxGeometry x="90" y="320" width="120" height="60" as="geometry"/>
                </mxCell>
                <mxCell id="18" value="autologging-visualizer" style="rounded=0;whiteSpace=wrap;html=1;" parent="1" vertex="1">
                    <mxGeometry x="480" width="120" height="60" as="geometry"/>
                </mxCell>
                <mxCell id="33" style="edgeStyle=none;html=1;noEdgeStyle=1;orthogonal=1;" parent="1" source="19" target="3" edge="1">
                    <mxGeometry relative="1" as="geometry">
                        <Array as="points">
                            <mxPoint x="300" y="394"/>
                            <mxPoint x="246.66666666666666" y="468"/>
                        </Array>
                    </mxGeometry>
                </mxCell>
                <mxCell id="34" style="edgeStyle=none;html=1;noEdgeStyle=1;orthogonal=1;" parent="1" source="19" target="11" edge="1">
                    <mxGeometry relative="1" as="geometry">
                        <Array as="points">
                            <mxPoint x="336.6666666666667" y="392"/>
                            <mxPoint x="360" y="430"/>
                            <mxPoint x="360" y="590"/>
                            <mxPoint x="405" y="590"/>
                            <mxPoint x="405" y="750"/>
                            <mxPoint x="389" y="788"/>
                        </Array>
                    </mxGeometry>
                </mxCell>
                <mxCell id="35" style="edgeStyle=none;html=1;noEdgeStyle=1;orthogonal=1;" parent="1" source="19" target="7" edge="1">
                    <mxGeometry relative="1" as="geometry">
                        <Array as="points">
                            <mxPoint x="263.3333333333333" y="392"/>
                            <mxPoint x="120" y="430"/>
                            <mxPoint x="120" y="590"/>
                            <mxPoint x="105" y="590"/>
                            <mxPoint x="105" y="750"/>
                            <mxPoint x="99.16666666666666" y="784"/>
                        </Array>
                    </mxGeometry>
                </mxCell>
                <mxCell id="19" value="util" style="rounded=0;whiteSpace=wrap;html=1;" parent="1" vertex="1">
                    <mxGeometry x="240" y="320" width="120" height="60" as="geometry"/>
                </mxCell>
            </root>
        </mxGraphModel>
    </diagram>
</mxfile>